<svg id="Layer_1" data-name="Layer 1" xmlns="http://www.w3.org/2000/svg" viewBox="0 0 147.18 153.44"><path d="M58.9,128.65H88.26a6.83,6.83,0,0,1,6.83,6.83v6.8a0,0,0,0,1,0,0h-43a0,0,0,0,1,0,0v-6.8A6.83,6.83,0,0,1,58.9,128.65Z" style="fill:none;stroke:#fff;stroke-miterlimit:10;stroke-width:2px"/><path d="M45.84,142.28h55.48a6.83,6.83,0,0,1,6.83,6.83v3.32a0,0,0,0,1,0,0H39a0,0,0,0,1,0,0v-3.32A6.83,6.83,0,0,1,45.84,142.28Z" style="fill:none;stroke:#fff;stroke-miterlimit:10;stroke-width:2px"/><path d="M144.62,14.07l-.8-2.6h-25c.14-3.36.21-6.84.21-10.47h-91c0,3.63.08,7.11.23,10.47h-25l-.8,2.6c-.23.72-5.32,17.84,4.23,34.67,7,12.27,19.72,21,38,26C55.1,91.32,66.48,95.14,66.48,95.14v33.51H80.69V95.14s12.19-2.94,22.83-20.71c17.65-5,30.05-13.66,36.87-25.69C149.94,31.91,144.85,14.79,144.62,14.07ZM13.24,45.19C7.24,34.67,8.17,23.71,9,18.84H28.77c1.59,20.39,5.86,35.47,11,46.59C27.22,60.87,18.32,54.09,13.24,45.19Zm120.7,0c-5,8.69-13.59,15.36-25.66,19.92,4.79-11,8.7-26,10.16-46.27h19.71C139,23.71,139.94,34.67,133.94,45.19Z" style="fill:none;stroke:#fff;stroke-miterlimit:10;stroke-width:2px"/><text transform="translate(59.38 64.68)" style="font-size:57.85026168823242px; font-weight: 900; fill:#fff;stroke:#fff;stroke-miterlimit:10;stroke-width:2px;font-family:Gotham">1</text></svg>