<?xml version="1.0" encoding="utf-8"?>
<!-- Generator: Adobe Illustrator 24.1.0, SVG Export Plug-In . SVG Version: 6.00 Build 0)  -->
<svg version="1.1" id="Layer_1" xmlns="http://www.w3.org/2000/svg" xmlns:xlink="http://www.w3.org/1999/xlink" x="0px" y="0px"
	 viewBox="0 0 105 180.3" style="enable-background:new 0 0 105 180.3;" xml:space="preserve">
<style type="text/css">
	.st0{fill:#2A2A2C;}
</style>
<g>
	<g>
		<path class="st0" d="M20.6,82.2H0V61h20.7L20.6,82.2L20.6,82.2z M2,80.2h16.7V63H2V80.2z"/>
		<path class="st0" d="M48.8,82.2H28.1V41.8h20.7C48.8,41.8,48.8,82.2,48.8,82.2z M30.1,80.2h16.7V43.8H30.1V80.2z"/>
		<path class="st0" d="M76.9,82.2H56.2V49.5h20.7V82.2z M58.2,80.2h16.7V51.5H58.2V80.2z"/>
		<path class="st0" d="M105,82.2H84.3V24.6H105V82.2z M86.3,80.2H103V26.6H86.3V80.2z"/>
		<rect x="67.4" y="18" transform="matrix(0.7421 -0.6703 0.6703 0.7421 8.1234 59.0591)" class="st0" width="26.8" height="2"/>
		<rect x="51.3" y="14.9" transform="matrix(0.417 -0.9089 0.9089 0.417 7.466 62.2519)" class="st0" width="2" height="20.8"/>
		
			<rect x="11.4" y="29.6" transform="matrix(0.7735 -0.6338 0.6338 0.7735 -13.9544 22.2039)" class="st0" width="25.4" height="2"/>
		<path class="st0" d="M10.2,48.5c-3.5,0-6.4-2.9-6.4-6.4s2.9-6.4,6.4-6.4s6.4,2.9,6.4,6.4S13.7,48.5,10.2,48.5z M10.2,37.8
			c-2.4,0-4.4,2-4.4,4.4s2,4.4,4.4,4.4s4.4-2,4.4-4.4S12.6,37.8,10.2,37.8z"/>
		<path class="st0" d="M38.1,25.3c-3.5,0-6.4-2.9-6.4-6.4s2.9-6.4,6.4-6.4s6.4,2.9,6.4,6.4S41.6,25.3,38.1,25.3z M38.1,14.6
			c-2.4,0-4.4,2-4.4,4.4s2,4.4,4.4,4.4s4.4-2,4.4-4.4S40.5,14.6,38.1,14.6z"/>
		<path class="st0" d="M66.5,37.8c-3.5,0-6.4-2.9-6.4-6.4S63,25,66.5,25c3.5,0,6.4,2.9,6.4,6.4C72.9,34.9,70.1,37.8,66.5,37.8z
			 M66.5,27c-2.4,0-4.4,2-4.4,4.4s2,4.4,4.4,4.4c2.4,0,4.4-2,4.4-4.4C70.9,29,69,27,66.5,27z"/>
		<path class="st0" d="M94.7,12.8c-3.5,0-6.4-2.9-6.4-6.4S91.2,0,94.7,0s6.4,2.9,6.4,6.4S98.2,12.8,94.7,12.8z M94.7,2
			c-2.4,0-4.4,2-4.4,4.4s2,4.4,4.4,4.4s4.4-2,4.4-4.4S97.1,2,94.7,2z"/>
	</g>
	<g>
		<g>
			<path class="st0" d="M79.1,180.3H25.8v-20.5l9.6-9.6h8l-0.2,0.8c0.8,1,3.6,3.7,9.1,3.7s8.3-2.8,9.1-3.7l-0.2-0.8h1.2h6.8l9.6,9.6
				v20.5H79.1z M27.8,178.3h49.3v-17.6l-8.5-8.5h-5.4c-1,1.2-4.3,4.5-10.7,4.5s-9.8-3.4-10.7-4.5h-5.4l-8.5,8.5L27.8,178.3
				L27.8,178.3z"/>
			
				<rect x="40.6" y="148.2" transform="matrix(0.2105 -0.9776 0.9776 0.2105 -112.1225 159.5841)" class="st0" width="4.2" height="2"/>
			
				<rect x="61.3" y="147.4" transform="matrix(0.9776 -0.2103 0.2103 0.9776 -30.0128 16.4433)" class="st0" width="2" height="3.9"/>
		</g>
		<path class="st0" d="M52.8,150.6c-12.3,0-22.3-10-22.3-22.3c0-12.3,10-22.3,22.3-22.3s22.3,10,22.3,22.3
			C75.1,140.6,65,150.6,52.8,150.6z M52.8,108.1c-11.2,0-20.3,9.1-20.3,20.3c0,11.2,9.1,20.3,20.3,20.3s20.3-9.1,20.3-20.3
			C73.1,117.2,63.9,108.1,52.8,108.1z"/>
	</g>
</g>
</svg>
