<?xml version="1.0" encoding="utf-8"?>
<!-- Generator: Adobe Illustrator 24.1.0, SVG Export Plug-In . SVG Version: 6.00 Build 0)  -->
<svg version="1.1" id="Layer_1" xmlns="http://www.w3.org/2000/svg" xmlns:xlink="http://www.w3.org/1999/xlink" x="0px" y="0px"
	 viewBox="0 0 156 176.9" style="enable-background:new 0 0 156 176.9;" xml:space="preserve">
<g>
	<g>
		<g>
			<g>
				<polygon class="st0" points="79,176.9 77,176.9 72.7,126.9 74.7,126.7 78,165.3 81.4,126.7 83.4,126.9 				"/>
			</g>
			<path class="st0" d="M156,114.9H0V0h156V114.9z M2,112.9h152V2H2C2,2,2,112.9,2,112.9z"/>
		</g>
		<polygon class="st0" points="122.1,89.9 26.6,89.9 26.6,36.5 28.6,36.5 28.6,87.9 122.1,87.9 		"/>
		<polygon class="st0" points="123.1,27.1 120,21.8 114.7,25 113.7,23.2 120.7,19.1 124.9,26.1 		"/>
		<path class="st0" d="M31.6,84.9v-2c0.2,0,18.2-0.1,38-7.8c18.1-7,41.5-22.1,49.7-53.8l1.9,0.5c-8.4,32.5-32.3,48-50.9,55.2
			C50.2,84.8,31.8,84.9,31.6,84.9z"/>
		<path class="st0" d="M126.1,93.9c-2.8,0-5-2.2-5-5s2.2-5,5-5s5,2.2,5,5S128.9,93.9,126.1,93.9z M126.1,85.9c-1.7,0-3,1.3-3,3
			s1.3,3,3,3c1.6,0,3-1.3,3-3C129.1,87.2,127.8,85.9,126.1,85.9z"/>
		<path class="st0" d="M27.6,37.5c-2.8,0-5-2.2-5-5s2.2-5,5-5s5,2.2,5,5S30.4,37.5,27.6,37.5z M27.6,29.5c-1.6,0-3,1.3-3,3
			s1.3,3,3,3s3-1.3,3-3C30.6,30.9,29.3,29.5,27.6,29.5z"/>
	</g>
	<path class="st0" d="M98.6,175.8l-20.5-58.6l-20.5,58.6l-1.9-0.5l11.1-62.1h10.6l0.7-2l0.7,2h10.6l11.1,62.1L98.6,175.8z
		 M79.4,115.1l16.9,48.2l-8.6-48.2H79.4z M68.4,115.1l-8.6,48.2l16.9-48.2H68.4z"/>
</g>
</svg>
