<?xml version="1.0" encoding="utf-8"?>
<!-- Generator: Adobe Illustrator 24.1.0, SVG Export Plug-In . SVG Version: 6.00 Build 0)  -->
<svg version="1.1" id="Layer_1" xmlns="http://www.w3.org/2000/svg" xmlns:xlink="http://www.w3.org/1999/xlink" x="0px" y="0px"
	 viewBox="0 0 379.9 214.2" style="enable-background:new 0 0 379.9 214.2;" xml:space="preserve">
<g>
	<polygon points="361.6,82.9 359.6,82.9 359.6,9.3 331.1,9.3 290.5,34.5 289.5,32.8 330.5,7.3 361.6,7.3 	"/>
	<polygon points="361.8,189.1 330.7,189.1 330.4,189 289.6,163.7 290.7,162 331.2,187.1 359.8,187.1 359.8,113.3 361.8,113.3 	"/>
	<polygon points="193.6,214.2 133,214.2 133,194.1 135,194.1 135,212.2 192,212.2 196,192.6 197.9,193 	"/>
	<path d="M158.3,196.4C72.5,196.4,0,151.4,0,98.2S72.5,0,158.3,0c51.8,0,101.9,14.1,148.9,42c39.5,23.4,62.7,48.6,65.2,51.4
		l-1.5,1.3c-2.5-2.8-25.4-27.7-64.7-51C259.5,16,209.7,2,158.3,2C118.4,2,78.5,12.3,49,30.3C18.7,48.7,2.1,72.8,2.1,98.2
		s16.7,49.4,46.9,67.9c29.6,18,69.4,28.3,109.3,28.3c129.2,0,209.3-88.9,212.6-92.7l1.5,1.3C369,106.8,288.4,196.4,158.3,196.4z"/>
	<path d="M142.4,148.4c-64.9,0-112.7-16.7-142.2-49.6l1.5-1.3c29.1,32.5,76.4,48.9,140.7,48.9c85.2,0,169.5-27.3,205.5-38.9l1.7-0.6
		l0.6,1.9l-1.7,0.6C312.4,121.1,227.9,148.4,142.4,148.4z"/>
	<rect x="1" y="97" width="286.5" height="2"/>
	<path d="M1.8,98.6l-1.5-1.3c5.8-7,19.4-20.5,44.8-31.6c27-11.8,59.7-17.8,97.4-17.8c85.4,0,166.7,26.3,205.7,38.9l1.9,0.6l-0.6,1.9
		l-1.9-0.6c-38.9-12.6-120-38.8-205.1-38.8C49.4,49.9,11.2,87.2,1.8,98.6z"/>
	<path d="M333.2,110.2c-22.7,0-46.7-4.2-46.7-12s24.1-12,46.7-12c24.5,0,46.7,8.7,46.7,12C380,101.6,357.8,110.2,333.2,110.2z
		 M333.2,88.2c-26.4,0-44.7,5.3-44.7,10s18.4,10,44.7,10c23.7,0,42-7.9,44.5-10C375.2,96,357,88.2,333.2,88.2z"/>
</g>
</svg>
